<svg xmlns="http://www.w3.org/2000/svg" viewBox="0 0 640 144" width="640" height="144" role="img" aria-labelledby="title">
  <title id="title">Location Benne Occitanie — monogramme Bascule</title>
  <defs>
    <linearGradient id="bascule-bronze" x1="26" y1="19" x2="108" y2="110" gradientUnits="userSpaceOnUse">
      <stop offset="0" stop-color="#e6bd68"/>
      <stop offset="0.52" stop-color="#c58e3c"/>
      <stop offset="1" stop-color="#9b651f"/>
    </linearGradient>
  </defs>
  <g transform="translate(4 4)">
    <rect width="128" height="128" rx="31" fill="#102431"/>
    <g fill="url(#bascule-bronze)">
      <rect x="23" y="16" width="21" height="88" rx="10.5"/>
      <path d="M39 16h34c17.6 0 29 10.3 29 25.9S90.6 68 73 68H39z"/>
      <path d="M39 57h37c18 0 30 10.4 30 26s-12 21-30 21H39z"/>
    </g>
    <path d="M54 31h17c8.6 0 14 4.7 14 11s-5.4 11-14 11H54z" fill="#102431"/>
    <path d="M54 72h21c9 0 15 4.7 15 11s-6 11-15 11H54z" fill="#102431"/>
  </g>
  <g font-family="Manrope, Arial, Helvetica, sans-serif">
    <text x="160" y="48" fill="#c58e3c" font-size="17" font-weight="800" letter-spacing="5">LOCATION</text>
    <text x="158" y="103" fill="#102431" font-size="54" font-weight="800" letter-spacing="-2">BENNE</text>
    <path d="M363 91h34" stroke="#c58e3c" stroke-width="5" stroke-linecap="round"/>
    <text x="420" y="102" fill="#102431" font-size="24" font-weight="800" letter-spacing="3.1">OCCITANIE</text>
  </g>
</svg>
