<svg xmlns="http://www.w3.org/2000/svg" viewBox="0 0 640 144" width="640" height="144" role="img" aria-labelledby="title">
  <title>Location Benne Occitanie</title>
  <g transform="translate(4 4)">
    <rect x="4" y="4" width="128" height="128" rx="29" fill="#17212b"/>
    <path d="m37 57 9-17 16 3 4 18zM70 57l5-21 20 6 1 19zM99 60l3-16 13 6-2 14z" fill="#2f7d4a"/>
    <path d="M21 61h93l-10 46H33z" fill="#f2aa00"/>
    <path d="M31 73h72l-6 23H42z" fill="#17212b"/>
    <path d="m42 73 18 23M95 73 77 96" stroke="#f2aa00" stroke-linecap="round" stroke-width="4"/>
    <path d="M28 111h81" stroke="#2f7d4a" stroke-linecap="round" stroke-width="8"/>
  </g>
  <g font-family="Arial, Helvetica, sans-serif">
    <text x="158" y="66" fill="#17212b" font-size="42" font-weight="800" letter-spacing="0.5">LOCATION BENNE</text>
    <rect x="160" y="79" width="54" height="7" rx="3.5" fill="#f2aa00"/>
    <text x="225" y="105" fill="#2f7d4a" font-size="30" font-weight="700" letter-spacing="6">OCCITANIE</text>
  </g>
</svg>
