<svg xmlns="http://www.w3.org/2000/svg" viewBox="0 0 128 128" width="128" height="128" role="img" aria-labelledby="title">
  <title id="title">Monogramme Bascule Location Benne Occitanie</title>
  <defs>
    <linearGradient id="bascule-bronze" x1="26" y1="19" x2="108" y2="110" gradientUnits="userSpaceOnUse">
      <stop offset="0" stop-color="#e6bd68"/>
      <stop offset="0.52" stop-color="#c58e3c"/>
      <stop offset="1" stop-color="#9b651f"/>
    </linearGradient>
  </defs>
  <rect x="4" y="4" width="120" height="120" rx="31" fill="#102431"/>
  <g fill="url(#bascule-bronze)">
    <rect x="27" y="20" width="21" height="88" rx="10.5"/>
    <path d="M43 20h34c17.6 0 29 10.3 29 25.9S94.6 72 77 72H43z"/>
    <path d="M43 61h37c18 0 30 10.4 30 26s-12 21-30 21H43z"/>
  </g>
  <path d="M58 35h17c8.6 0 14 4.7 14 11s-5.4 11-14 11H58z" fill="#102431"/>
  <path d="M58 76h21c9 0 15 4.7 15 11s-6 11-15 11H58z" fill="#102431"/>
</svg>
